<?xml version="1.0" encoding="UTF-8" standalone="no"?>
<!DOCTYPE svg PUBLIC "-//W3C//DTD SVG 1.1//EN"
 "http://www.w3.org/Graphics/SVG/1.1/DTD/svg11.dtd">
<!-- Generated by graphviz version 2.43.0 (0)
 -->
<!-- Title: %3 Pages: 1 -->
<svg width="469pt" height="476pt"
 viewBox="0.00 0.00 469.00 476.00" xmlns="http://www.w3.org/2000/svg" xmlns:xlink="http://www.w3.org/1999/xlink">
<g id="graph0" class="graph" transform="scale(1 1) rotate(0) translate(4 472)">
<title>%3</title>
<polygon fill="white" stroke="transparent" points="-4,4 -4,-472 465,-472 465,4 -4,4"/>
<!-- &#45;8595285657178963303 -->
<g id="node1" class="node">
<title>&#45;8595285657178963303</title>
<polygon fill="none" stroke="black" points="363.5,-468 97.5,-468 97.5,-432 363.5,-432 363.5,-468"/>
<text text-anchor="middle" x="230.5" y="-445" font-family="Helvetica,sans-Serif" font-size="20.00">ResetIndex(ValueCounts)</text>
</g>
<!-- 1197616520383357183 -->
<g id="node2" class="node">
<title>1197616520383357183</title>
<polygon fill="none" stroke="black" points="378.5,-396 82.5,-396 82.5,-360 378.5,-360 378.5,-396"/>
<text text-anchor="middle" x="230.5" y="-373" font-family="Helvetica,sans-Serif" font-size="20.00">ValueCounts(ExplodeSeries)</text>
</g>
<!-- 1197616520383357183&#45;&gt;&#45;8595285657178963303 -->
<g id="edge1" class="edge">
<title>1197616520383357183&#45;&gt;&#45;8595285657178963303</title>
<path fill="none" stroke="black" d="M230.5,-396.3C230.5,-404.02 230.5,-413.29 230.5,-421.89"/>
<polygon fill="black" stroke="black" points="227,-421.9 230.5,-431.9 234,-421.9 227,-421.9"/>
</g>
<!-- &#45;1091395950398752121 -->
<g id="node3" class="node">
<title>&#45;1091395950398752121</title>
<polygon fill="none" stroke="black" points="380,-324 81,-324 81,-288 380,-288 380,-324"/>
<text text-anchor="middle" x="230.5" y="-301" font-family="Helvetica,sans-Serif" font-size="20.00">ExplodeSeries(FunctionMap)</text>
</g>
<!-- &#45;1091395950398752121&#45;&gt;1197616520383357183 -->
<g id="edge2" class="edge">
<title>&#45;1091395950398752121&#45;&gt;1197616520383357183</title>
<path fill="none" stroke="black" d="M230.5,-324.3C230.5,-332.02 230.5,-341.29 230.5,-349.89"/>
<polygon fill="black" stroke="black" points="227,-349.9 230.5,-359.9 234,-349.9 227,-349.9"/>
</g>
<!-- 5669397046478202161 -->
<g id="node4" class="node">
<title>5669397046478202161</title>
<polygon fill="none" stroke="black" points="358.5,-252 102.5,-252 102.5,-216 358.5,-216 358.5,-252"/>
<text text-anchor="middle" x="230.5" y="-229" font-family="Helvetica,sans-Serif" font-size="20.00">FunctionMap(Projection)</text>
</g>
<!-- 5669397046478202161&#45;&gt;&#45;1091395950398752121 -->
<g id="edge3" class="edge">
<title>5669397046478202161&#45;&gt;&#45;1091395950398752121</title>
<path fill="none" stroke="black" d="M230.5,-252.3C230.5,-260.02 230.5,-269.29 230.5,-277.89"/>
<polygon fill="black" stroke="black" points="227,-277.9 230.5,-287.9 234,-277.9 227,-277.9"/>
</g>
<!-- 2533755087519404026 -->
<g id="node5" class="node">
<title>2533755087519404026</title>
<polygon fill="none" stroke="black" points="422,-180 39,-180 39,-144 422,-144 422,-180"/>
<text text-anchor="middle" x="230.5" y="-157" font-family="Helvetica,sans-Serif" font-size="20.00">Projection(ArrowStringConversion, 0)</text>
</g>
<!-- 2533755087519404026&#45;&gt;5669397046478202161 -->
<g id="edge4" class="edge">
<title>2533755087519404026&#45;&gt;5669397046478202161</title>
<path fill="none" stroke="black" d="M230.5,-180.3C230.5,-188.02 230.5,-197.29 230.5,-205.89"/>
<polygon fill="black" stroke="black" points="227,-205.9 230.5,-215.9 234,-205.9 227,-205.9"/>
</g>
<!-- 7661971230967276166 -->
<g id="node6" class="node">
<title>7661971230967276166</title>
<polygon fill="none" stroke="black" points="461,-108 0,-108 0,-72 461,-72 461,-108"/>
<text text-anchor="middle" x="230.5" y="-85" font-family="Helvetica,sans-Serif" font-size="20.00">ArrowStringConversion(FromMapProjectable)</text>
</g>
<!-- 7661971230967276166&#45;&gt;2533755087519404026 -->
<g id="edge5" class="edge">
<title>7661971230967276166&#45;&gt;2533755087519404026</title>
<path fill="none" stroke="black" d="M230.5,-108.3C230.5,-116.02 230.5,-125.29 230.5,-133.89"/>
<polygon fill="black" stroke="black" points="227,-133.9 230.5,-143.9 234,-133.9 227,-133.9"/>
</g>
<!-- 6890414045184417073 -->
<g id="node7" class="node">
<title>6890414045184417073</title>
<polygon fill="none" stroke="black" points="339.5,-36 121.5,-36 121.5,0 339.5,0 339.5,-36"/>
<text text-anchor="middle" x="230.5" y="-13" font-family="Helvetica,sans-Serif" font-size="20.00">FromMapProjectable</text>
</g>
<!-- 6890414045184417073&#45;&gt;7661971230967276166 -->
<g id="edge6" class="edge">
<title>6890414045184417073&#45;&gt;7661971230967276166</title>
<path fill="none" stroke="black" d="M230.5,-36.3C230.5,-44.02 230.5,-53.29 230.5,-61.89"/>
<polygon fill="black" stroke="black" points="227,-61.9 230.5,-71.9 234,-61.9 227,-61.9"/>
</g>
</g>
</svg>
